# xmcd
#
# Track frame offsets:
#	150
#	17350
#	37249
#	55934
#	75991
#	96154
#	115095
#	131700
#	145545
#	160304
#	176546
#	196781
#	214995
#	236815
#	252812
#	274181
#	289852
#	308938
#	334629
#
# Disc length: 4664 seconds
#
# Revision: 1
# Processed by: cddbd v1.5.2PL0 Copyright (c) Steve Scherf et al.
# Submitted via: audiograbber 1.83.01
#
DISCID=0c123613
DTITLE=MIXED - NO.1 70'S COLLECTION
DYEAR=1900
DGENRE=
TTITLE0=ELTON JOHN - CANDLE IN THE WIND
TTITLE1=MOODY BLUES - NIGHTS IN WHITE SATIN
TTITLE2=THE HOLLIES - THE AIR THAT I BREATH
TTITLE3=STYX - BABE
TTITLE4=KATE BUSH - WUTHERING HIEGTS
TTITLE5=CLIFF RICHARD - WE DON'T TALK ANYMORE
TTITLE6=DOOBIE BROTHERS - WHAT A FOOL BELIEVES
TTITLE7=STEVE MILLER BAND - ROCK N' ME
TTITLE8=RAINBOW - SINCE YOU'VE BEEN GONE
TTITLE9=BACHMAN TURNER - YOU AIN'T SEEN NOTHING YET
TTITLE10=SLADE - SKWEEZE ME PLEEZE ME
TTITLE11=SWEET - BALLROOM BLITZ
TTITLE12=WILD CHERRY - PLAY THAT FUNFY MUSIC
TTITLE13=STATUS QUO - ROCKIN ALL OVER THE WORLD
TTITLE14=LYNYRD SKYNYRD - SWEET HOME ALABAMA
TTITLE15=ALICE COOPER - SCHOOL OUT
TTITLE16=FREE - ALL RIGHT NOW
TTITLE17=THIN LIZZY - WHISKY IN THE JAR
TTITLE18=GARY MOORE - PARISIENNE WALKWAYS
EXTD=
EXTT0=
EXTT1=
EXTT2=
EXTT3=
EXTT4=
EXTT5=
EXTT6=
EXTT7=
EXTT8=
EXTT9=
EXTT10=
EXTT11=
EXTT12=
EXTT13=
EXTT14=
EXTT15=
EXTT16=
EXTT17=
EXTT18=
PLAYORDER=
